<svg width="450" height="450" viewBox="0 0 450 450" fill="none" xmlns="http://www.w3.org/2000/svg">
<g clip-path="url(#clip0_5_114)">
<path d="M147 150H3C1.34315 150 0 151.343 0 153V297C0 298.657 1.34315 300 3 300H147C148.657 300 150 298.657 150 297V153C150 151.343 148.657 150 147 150Z" fill="#EDEDED"/>
<path d="M57 255H18C16.3431 255 15 256.343 15 258V282C15 283.657 16.3431 285 18 285H57C58.6569 285 60 283.657 60 282V258C60 256.343 58.6569 255 57 255Z" fill="#2E3343"/>
<path d="M75 259.5H135" stroke="#2E3343" stroke-width="2"/>
<path d="M75 270H135" stroke="#2E3343" stroke-width="2"/>
<path d="M75 280.5H135" stroke="#2E3343" stroke-width="2"/>
<path d="M57 165H18C16.3431 165 15 166.343 15 168V192C15 193.657 16.3431 195 18 195H57C58.6569 195 60 193.657 60 192V168C60 166.343 58.6569 165 57 165Z" fill="#2E3343"/>
<path d="M75 169.5H135" stroke="#2E3343" stroke-width="2"/>
<path d="M75 180H135" stroke="#2E3343" stroke-width="2"/>
<path d="M75 190.5H135" stroke="#2E3343" stroke-width="2"/>
<path d="M57 210H18C16.3431 210 15 211.343 15 213V237C15 238.657 16.3431 240 18 240H57C58.6569 240 60 238.657 60 237V213C60 211.343 58.6569 210 57 210Z" fill="#2E3343"/>
<path d="M75 210H135" stroke="#2E3343" stroke-width="2"/>
<path d="M75 225H135" stroke="#2E3343" stroke-width="2"/>
<path d="M75 235.5H135" stroke="#2E3343" stroke-width="2"/>
</g>
<g clip-path="url(#clip1_5_114)">
<path d="M147 0H3C1.34315 0 0 1.34315 0 3V147C0 148.657 1.34315 150 3 150H147C148.657 150 150 148.657 150 147V3C150 1.34315 148.657 0 147 0Z" fill="#F9F9F9"/>
<path d="M57 15H18C16.3431 15 15 16.3431 15 18V42C15 43.6569 16.3431 45 18 45H57C58.6569 45 60 43.6569 60 42V18C60 16.3431 58.6569 15 57 15Z" fill="#D9D9D9"/>
<path d="M75 19.5H135" stroke="#D9D9D9" stroke-width="2"/>
<path d="M75 30H135" stroke="#D9D9D9" stroke-width="2"/>
<path d="M75 40.5H135" stroke="#D9D9D9" stroke-width="2"/>
<path d="M57 60H18C16.3431 60 15 61.3431 15 63V87C15 88.6569 16.3431 90 18 90H57C58.6569 90 60 88.6569 60 87V63C60 61.3431 58.6569 60 57 60Z" fill="#D9D9D9"/>
<path d="M75 64.5H135" stroke="#D9D9D9" stroke-width="2"/>
<path d="M75 75H135" stroke="#D9D9D9" stroke-width="2"/>
<path d="M75 85.5H135" stroke="#D9D9D9" stroke-width="2"/>
<path d="M57 105H18C16.3431 105 15 106.343 15 108V132C15 133.657 16.3431 135 18 135H57C58.6569 135 60 133.657 60 132V108C60 106.343 58.6569 105 57 105Z" fill="#D9D9D9"/>
<path d="M75 109.5H135" stroke="#D9D9D9" stroke-width="2"/>
<path d="M75 120H135" stroke="#D9D9D9" stroke-width="2"/>
<path d="M75 130.5H135" stroke="#D9D9D9" stroke-width="2"/>
</g>
<g clip-path="url(#clip2_5_114)">
<path d="M446.981 31.0347H332.241C330.921 31.0347 329.851 32.0944 329.851 33.4015V147.011C329.851 148.318 330.921 149.378 332.241 149.378H446.981C448.301 149.378 449.372 148.318 449.372 147.011V33.4015C449.372 32.0944 448.301 31.0347 446.981 31.0347Z" fill="#F9F9F9"/>
<path d="M384.233 42.8687H344.193C342.873 42.8687 341.803 43.9283 341.803 45.2355V84.8806C341.803 86.1878 342.873 87.2475 344.193 87.2475H384.233C385.553 87.2475 386.623 86.1878 386.623 84.8806V45.2355C386.623 43.9283 385.553 42.8687 384.233 42.8687Z" fill="#D9D9D9"/>
<path d="M392.599 46.7148H437.419" stroke="#D9D9D9" stroke-width="1.60158"/>
<path d="M392.599 58.5493H437.419" stroke="#D9D9D9" stroke-width="1.60158"/>
<path d="M392.599 70.3838H437.419" stroke="#D9D9D9" stroke-width="1.60158"/>
<path d="M392.599 82.2178H437.419" stroke="#D9D9D9" stroke-width="1.60158"/>
<path d="M435.03 93.1646H344.193C342.873 93.1646 341.803 94.2242 341.803 95.5314V135.177C341.803 136.484 342.873 137.543 344.193 137.543H435.03C436.35 137.543 437.42 136.484 437.42 135.177V95.5314C437.42 94.2242 436.35 93.1646 435.03 93.1646Z" fill="#D9D9D9"/>
<g filter="url(#filter0_d_5_114)">
<path d="M416.337 1.57031H303.862C302.568 1.57031 301.519 2.60908 301.519 3.89046V115.258C301.519 116.539 302.568 117.578 303.862 117.578H416.337C417.632 117.578 418.681 116.539 418.681 115.258V3.89046C418.681 2.60908 417.632 1.57031 416.337 1.57031Z" fill="#F9F9F9"/>
<path d="M346.04 13.1709H315.578C314.284 13.1709 313.235 14.2097 313.235 15.491V34.0522C313.235 35.3336 314.284 36.3724 315.578 36.3724H346.04C347.334 36.3724 348.383 35.3336 348.383 34.0522V15.491C348.383 14.2097 347.334 13.1709 346.04 13.1709Z" fill="#D9D9D9"/>
<path d="M360.1 16.6514H406.964" stroke="#D9D9D9" stroke-width="1.56997"/>
<path d="M360.1 24.7715H406.964" stroke="#D9D9D9" stroke-width="1.56997"/>
<path d="M360.1 32.8926H406.964" stroke="#D9D9D9" stroke-width="1.56997"/>
<path d="M346.04 47.9731H315.578C314.284 47.9731 313.235 49.0119 313.235 50.2933V68.8545C313.235 70.1358 314.284 71.1746 315.578 71.1746H346.04C347.334 71.1746 348.383 70.1358 348.383 68.8545V50.2933C348.383 49.0119 347.334 47.9731 346.04 47.9731Z" fill="#D9D9D9"/>
<path d="M360.1 51.4531H406.964" stroke="#D9D9D9" stroke-width="1.56997"/>
<path d="M360.1 59.5737H406.964" stroke="#D9D9D9" stroke-width="1.56997"/>
<path d="M360.1 67.6943H406.964" stroke="#D9D9D9" stroke-width="1.56997"/>
<path d="M346.04 82.7759H315.578C314.284 82.7759 313.235 83.8146 313.235 85.096V103.657C313.235 104.939 314.284 105.977 315.578 105.977H346.04C347.334 105.977 348.383 104.939 348.383 103.657V85.096C348.383 83.8146 347.334 82.7759 346.04 82.7759Z" fill="#D9D9D9"/>
<path d="M360.1 86.2554H406.964" stroke="#D9D9D9" stroke-width="1.56997"/>
<path d="M360.1 94.376H406.964" stroke="#D9D9D9" stroke-width="1.56997"/>
<path d="M360.1 102.497H406.964" stroke="#D9D9D9" stroke-width="1.56997"/>
</g>
</g>
<g clip-path="url(#clip3_5_114)">
<path d="M297 0H153C151.343 0 150 1.34315 150 3V147C150 148.657 151.343 150 153 150H297C298.657 150 300 148.657 300 147V3C300 1.34315 298.657 0 297 0Z" fill="#F9F9F9"/>
<path d="M218.25 15H168C166.343 15 165 16.3431 165 18V68.25C165 69.9069 166.343 71.25 168 71.25H218.25C219.907 71.25 221.25 69.9069 221.25 68.25V18C221.25 16.3431 219.907 15 218.25 15Z" fill="#D9D9D9"/>
<path d="M228.75 15H285V71.25H228.75V15Z" fill="#F9F9F9"/>
<path d="M228.75 19.875H285" stroke="#D9D9D9" stroke-width="2"/>
<path d="M228.75 34.875H285" stroke="#D9D9D9" stroke-width="2"/>
<path d="M228.75 49.875H285" stroke="#D9D9D9" stroke-width="2"/>
<path d="M228.75 64.875H285" stroke="#D9D9D9" stroke-width="2"/>
<path d="M282 78.75H168C166.343 78.75 165 80.0931 165 81.75V132C165 133.657 166.343 135 168 135H282C283.657 135 285 133.657 285 132V81.75C285 80.0931 283.657 78.75 282 78.75Z" fill="#D9D9D9"/>
</g>
<g clip-path="url(#clip4_5_114)">
<path d="M297 150H153C151.343 150 150 151.343 150 153V297C150 298.657 151.343 300 153 300H297C298.657 300 300 298.657 300 297V153C300 151.343 298.657 150 297 150Z" fill="#EDEDED"/>
<path d="M218.25 165H168C166.343 165 165 166.343 165 168V218.25C165 219.907 166.343 221.25 168 221.25H218.25C219.907 221.25 221.25 219.907 221.25 218.25V168C221.25 166.343 219.907 165 218.25 165Z" fill="#2E3343"/>
<path d="M228.75 169.875H285" stroke="#2E3343" stroke-width="2"/>
<path d="M228.75 184.875H285" stroke="#2E3343" stroke-width="2"/>
<path d="M228.75 199.875H285" stroke="#2E3343" stroke-width="2"/>
<path d="M228.75 214.875H285" stroke="#2E3343" stroke-width="2"/>
<path d="M282 228.75H168C166.343 228.75 165 230.093 165 231.75V282C165 283.657 166.343 285 168 285H282C283.657 285 285 283.657 285 282V231.75C285 230.093 283.657 228.75 282 228.75Z" fill="#2E3343"/>
</g>
<g clip-path="url(#clip5_5_114)">
<path d="M446.985 179.757H333.375C332.068 179.757 331.008 180.828 331.008 182.148V296.888C331.008 298.208 332.068 299.278 333.375 299.278H446.985C448.292 299.278 449.352 298.208 449.352 296.888V182.148C449.352 180.828 448.292 179.757 446.985 179.757Z" fill="#EDEDED"/>
<path d="M384.855 191.709H345.21C343.903 191.709 342.843 192.78 342.843 194.1V234.139C342.843 235.46 343.903 236.53 345.21 236.53H384.855C386.162 236.53 387.222 235.46 387.222 234.139V194.1C387.222 192.78 386.162 191.709 384.855 191.709Z" fill="#2E3343"/>
<path d="M393.139 195.594H437.517" stroke="#2E3343" stroke-width="1.60158"/>
<path d="M393.139 207.546H437.517" stroke="#2E3343" stroke-width="1.60158"/>
<path d="M393.139 219.498H437.517" stroke="#2E3343" stroke-width="1.60158"/>
<path d="M393.139 231.45H437.517" stroke="#2E3343" stroke-width="1.60158"/>
<path d="M435.151 242.506H345.21C343.903 242.506 342.843 243.576 342.843 244.896V284.936C342.843 286.256 343.903 287.326 345.21 287.326H435.151C436.458 287.326 437.518 286.256 437.518 284.936V244.896C437.518 243.576 436.458 242.506 435.151 242.506Z" fill="#2E3343"/>
<g filter="url(#filter1_d_5_114)">
<path d="M416.643 150H305.276C303.994 150 302.956 151.049 302.956 152.343V264.819C302.956 266.113 303.994 267.162 305.276 267.162H416.643C417.925 267.162 418.963 266.113 418.963 264.819V152.343C418.963 151.049 417.925 150 416.643 150Z" fill="#EDEDED"/>
<path d="M347.038 161.716H316.876C315.595 161.716 314.556 162.765 314.556 164.06V182.805C314.556 184.1 315.595 185.149 316.876 185.149H347.038C348.32 185.149 349.359 184.1 349.359 182.805V164.06C349.359 162.765 348.32 161.716 347.038 161.716Z" fill="#2E3343"/>
<path d="M360.959 165.231H407.362" stroke="#2E3343" stroke-width="1.56997"/>
<path d="M360.959 173.432H407.362" stroke="#2E3343" stroke-width="1.56997"/>
<path d="M360.959 181.634H407.362" stroke="#2E3343" stroke-width="1.56997"/>
<path d="M347.038 196.865H316.876C315.595 196.865 314.556 197.914 314.556 199.208V217.954C314.556 219.248 315.595 220.297 316.876 220.297H347.038C348.32 220.297 349.359 219.248 349.359 217.954V199.208C349.359 197.914 348.32 196.865 347.038 196.865Z" fill="#2E3343"/>
<path d="M360.959 200.379H407.362" stroke="#2E3343" stroke-width="1.56997"/>
<path d="M360.959 208.581H407.362" stroke="#2E3343" stroke-width="1.56997"/>
<path d="M360.959 216.782H407.362" stroke="#2E3343" stroke-width="1.56997"/>
<path d="M347.038 232.014H316.876C315.595 232.014 314.556 233.063 314.556 234.357V253.103C314.556 254.397 315.595 255.446 316.876 255.446H347.038C348.32 255.446 349.359 254.397 349.359 253.103V234.357C349.359 233.063 348.32 232.014 347.038 232.014Z" fill="#2E3343"/>
<path d="M360.959 235.528H407.362" stroke="#2E3343" stroke-width="1.56997"/>
<path d="M360.959 243.729H407.362" stroke="#2E3343" stroke-width="1.56997"/>
<path d="M360.959 251.931H407.362" stroke="#2E3343" stroke-width="1.56997"/>
</g>
</g>
<defs>
<filter id="filter0_d_5_114" x="299.519" y="-0.429688" width="125.162" height="124.008" filterUnits="userSpaceOnUse" color-interpolation-filters="sRGB">
<feFlood flood-opacity="0" result="BackgroundImageFix"/>
<feColorMatrix in="SourceAlpha" type="matrix" values="0 0 0 0 0 0 0 0 0 0 0 0 0 0 0 0 0 0 127 0" result="hardAlpha"/>
<feOffset dx="2" dy="2"/>
<feGaussianBlur stdDeviation="2"/>
<feComposite in2="hardAlpha" operator="out"/>
<feColorMatrix type="matrix" values="0 0 0 0 0.85098 0 0 0 0 0.85098 0 0 0 0 0.85098 0 0 0 1 0"/>
<feBlend mode="normal" in2="BackgroundImageFix" result="effect1_dropShadow_5_114"/>
<feBlend mode="normal" in="SourceGraphic" in2="effect1_dropShadow_5_114" result="shape"/>
</filter>
<filter id="filter1_d_5_114" x="298.956" y="150" width="124.008" height="125.162" filterUnits="userSpaceOnUse" color-interpolation-filters="sRGB">
<feFlood flood-opacity="0" result="BackgroundImageFix"/>
<feColorMatrix in="SourceAlpha" type="matrix" values="0 0 0 0 0 0 0 0 0 0 0 0 0 0 0 0 0 0 127 0" result="hardAlpha"/>
<feOffset dy="4"/>
<feGaussianBlur stdDeviation="2"/>
<feComposite in2="hardAlpha" operator="out"/>
<feColorMatrix type="matrix" values="0 0 0 0 0 0 0 0 0 0 0 0 0 0 0 0 0 0 0.25 0"/>
<feBlend mode="normal" in2="BackgroundImageFix" result="effect1_dropShadow_5_114"/>
<feBlend mode="normal" in="SourceGraphic" in2="effect1_dropShadow_5_114" result="shape"/>
</filter>
<clipPath id="clip0_5_114">
<rect width="150" height="150" fill="white" transform="translate(0 150)"/>
</clipPath>
<clipPath id="clip1_5_114">
<rect width="150" height="150" fill="white"/>
</clipPath>
<clipPath id="clip2_5_114">
<rect width="150" height="150" fill="white" transform="translate(300)"/>
</clipPath>
<clipPath id="clip3_5_114">
<rect width="150" height="150" fill="white" transform="translate(150)"/>
</clipPath>
<clipPath id="clip4_5_114">
<rect width="150" height="150" fill="white" transform="translate(150 150)"/>
</clipPath>
<clipPath id="clip5_5_114">
<rect width="150" height="150" fill="white" transform="translate(300 150)"/>
</clipPath>
</defs>
</svg>
