<svg width="201" height="203" viewBox="0 0 201 203" fill="none" xmlns="http://www.w3.org/2000/svg">
<rect x="40" y="42" width="160.158" height="160.158" rx="3.20317" fill="#F9F9F9"/>
<rect x="56.0158" y="58.0158" width="60.0594" height="60.0594" rx="3.20317" fill="#D9D9D9"/>
<line x1="124.083" y1="63.2209" x2="184.142" y2="63.2209" stroke="#D9D9D9" stroke-width="1.60158"/>
<line x1="124.083" y1="79.2367" x2="184.142" y2="79.2367" stroke="#D9D9D9" stroke-width="1.60158"/>
<line x1="124.083" y1="95.2526" x2="184.142" y2="95.2526" stroke="#D9D9D9" stroke-width="1.60158"/>
<line x1="124.083" y1="111.268" x2="184.142" y2="111.268" stroke="#D9D9D9" stroke-width="1.60158"/>
<rect x="56.0158" y="126.083" width="128.127" height="60.0594" rx="3.20317" fill="#D9D9D9"/>
<g filter="url(#filter0_d_23_287)">
<rect x="2.03513" y="2.125" width="156.997" height="156.997" rx="3.13993" fill="#F9F9F9" shape-rendering="crispEdges"/>
<rect x="17.7347" y="17.8247" width="47.099" height="31.3993" rx="3.13993" fill="#D9D9D9"/>
<path d="M80.5334 22.5345H143.332" stroke="#D9D9D9" stroke-width="1.56997"/>
<path d="M80.5334 33.5242H143.332" stroke="#D9D9D9" stroke-width="1.56997"/>
<path d="M80.5334 44.5142H143.332" stroke="#D9D9D9" stroke-width="1.56997"/>
<rect x="17.7347" y="64.9236" width="47.099" height="31.3993" rx="3.13993" fill="#D9D9D9"/>
<path d="M80.5334 69.6334H143.332" stroke="#D9D9D9" stroke-width="1.56997"/>
<path d="M80.5334 80.6232H143.332" stroke="#D9D9D9" stroke-width="1.56997"/>
<path d="M80.5334 91.613H143.332" stroke="#D9D9D9" stroke-width="1.56997"/>
<rect x="17.7347" y="112.023" width="47.099" height="31.3993" rx="3.13993" fill="#D9D9D9"/>
<path d="M80.5334 116.732H143.332" stroke="#D9D9D9" stroke-width="1.56997"/>
<path d="M80.5334 127.722H143.332" stroke="#D9D9D9" stroke-width="1.56997"/>
<path d="M80.5334 138.712H143.332" stroke="#D9D9D9" stroke-width="1.56997"/>
</g>
<defs>
<filter id="filter0_d_23_287" x="0.0351257" y="0.125" width="164.997" height="164.997" filterUnits="userSpaceOnUse" color-interpolation-filters="sRGB">
<feFlood flood-opacity="0" result="BackgroundImageFix"/>
<feColorMatrix in="SourceAlpha" type="matrix" values="0 0 0 0 0 0 0 0 0 0 0 0 0 0 0 0 0 0 127 0" result="hardAlpha"/>
<feOffset dx="2" dy="2"/>
<feGaussianBlur stdDeviation="2"/>
<feComposite in2="hardAlpha" operator="out"/>
<feColorMatrix type="matrix" values="0 0 0 0 0.85098 0 0 0 0 0.85098 0 0 0 0 0.85098 0 0 0 1 0"/>
<feBlend mode="normal" in2="BackgroundImageFix" result="effect1_dropShadow_23_287"/>
<feBlend mode="normal" in="SourceGraphic" in2="effect1_dropShadow_23_287" result="shape"/>
</filter>
</defs>
</svg>
