<svg width="203" height="201" viewBox="0 0 203 201" fill="none" xmlns="http://www.w3.org/2000/svg">
<rect x="41.9648" y="39.875" width="160.158" height="160.158" rx="3.20317" fill="#EDEDED"/>
<rect x="57.9807" y="55.8908" width="60.0594" height="60.0594" rx="3.20317" fill="#2E3343"/>
<line x1="126.048" y1="61.0959" x2="186.107" y2="61.0959" stroke="#2E3343" stroke-width="1.60158"/>
<line x1="126.048" y1="77.1117" x2="186.107" y2="77.1117" stroke="#2E3343" stroke-width="1.60158"/>
<line x1="126.048" y1="93.1276" x2="186.107" y2="93.1276" stroke="#2E3343" stroke-width="1.60158"/>
<line x1="126.048" y1="109.143" x2="186.107" y2="109.143" stroke="#2E3343" stroke-width="1.60158"/>
<rect x="57.9807" y="123.958" width="128.127" height="60.0594" rx="3.20317" fill="#2E3343"/>
<g filter="url(#filter0_d_23_288)">
<rect x="4" width="156.997" height="156.997" rx="3.13993" fill="#EDEDED" shape-rendering="crispEdges"/>
<rect x="19.6996" y="15.6997" width="47.099" height="31.3993" rx="3.13993" fill="#2E3343"/>
<path d="M82.4983 20.4095H145.297" stroke="#2E3343" stroke-width="1.56997"/>
<path d="M82.4983 31.3992H145.297" stroke="#2E3343" stroke-width="1.56997"/>
<path d="M82.4983 42.3892H145.297" stroke="#2E3343" stroke-width="1.56997"/>
<rect x="19.6996" y="62.7986" width="47.099" height="31.3993" rx="3.13993" fill="#2E3343"/>
<path d="M82.4983 67.5084H145.297" stroke="#2E3343" stroke-width="1.56997"/>
<path d="M82.4983 78.4982H145.297" stroke="#2E3343" stroke-width="1.56997"/>
<path d="M82.4983 89.488H145.297" stroke="#2E3343" stroke-width="1.56997"/>
<rect x="19.6996" y="109.898" width="47.099" height="31.3993" rx="3.13993" fill="#2E3343"/>
<path d="M82.4983 114.607H145.297" stroke="#2E3343" stroke-width="1.56997"/>
<path d="M82.4983 125.597H145.297" stroke="#2E3343" stroke-width="1.56997"/>
<path d="M82.4983 136.587H145.297" stroke="#2E3343" stroke-width="1.56997"/>
</g>
<defs>
<filter id="filter0_d_23_288" x="0" y="0" width="164.997" height="164.997" filterUnits="userSpaceOnUse" color-interpolation-filters="sRGB">
<feFlood flood-opacity="0" result="BackgroundImageFix"/>
<feColorMatrix in="SourceAlpha" type="matrix" values="0 0 0 0 0 0 0 0 0 0 0 0 0 0 0 0 0 0 127 0" result="hardAlpha"/>
<feOffset dy="4"/>
<feGaussianBlur stdDeviation="2"/>
<feComposite in2="hardAlpha" operator="out"/>
<feColorMatrix type="matrix" values="0 0 0 0 0 0 0 0 0 0 0 0 0 0 0 0 0 0 0.25 0"/>
<feBlend mode="normal" in2="BackgroundImageFix" result="effect1_dropShadow_23_288"/>
<feBlend mode="normal" in="SourceGraphic" in2="effect1_dropShadow_23_288" result="shape"/>
</filter>
</defs>
</svg>
